<?xml version="1.0" standalone="no"?>
<svg xmlns:xlink="http://www.w3.org/1999/xlink" id="wave" style="transform:rotate(0deg); transition: 0.3s" viewBox="0 0 1440 400" version="1.1" xmlns="http://www.w3.org/2000/svg"><defs><linearGradient id="sw-gradient-0" x1="0" x2="0" y1="1" y2="0"><stop stop-color="rgba(0, 86.888, 13.001, 1)" offset="0%"/><stop stop-color="rgba(183, 228, 190, 1)" offset="100%"/></linearGradient></defs><path style="transform:translate(0, 0px); opacity:1" fill="url(#sw-gradient-0)" d="M0,80L20,80C40,80,80,80,120,73.3C160,67,200,53,240,80C280,107,320,173,360,166.7C400,160,440,80,480,40C520,0,560,0,600,46.7C640,93,680,187,720,226.7C760,267,800,253,840,266.7C880,280,920,320,960,333.3C1000,347,1040,333,1080,320C1120,307,1160,293,1200,286.7C1240,280,1280,280,1320,266.7C1360,253,1400,227,1440,200C1480,173,1520,147,1560,153.3C1600,160,1640,200,1680,233.3C1720,267,1760,293,1800,286.7C1840,280,1880,240,1920,240C1960,240,2000,280,2040,286.7C2080,293,2120,267,2160,220C2200,173,2240,107,2280,120C2320,133,2360,227,2400,233.3C2440,240,2480,160,2520,113.3C2560,67,2600,53,2640,53.3C2680,53,2720,67,2760,86.7C2800,107,2840,133,2860,146.7L2880,160L2880,400L2860,400C2840,400,2800,400,2760,400C2720,400,2680,400,2640,400C2600,400,2560,400,2520,400C2480,400,2440,400,2400,400C2360,400,2320,400,2280,400C2240,400,2200,400,2160,400C2120,400,2080,400,2040,400C2000,400,1960,400,1920,400C1880,400,1840,400,1800,400C1760,400,1720,400,1680,400C1640,400,1600,400,1560,400C1520,400,1480,400,1440,400C1400,400,1360,400,1320,400C1280,400,1240,400,1200,400C1160,400,1120,400,1080,400C1040,400,1000,400,960,400C920,400,880,400,840,400C800,400,760,400,720,400C680,400,640,400,600,400C560,400,520,400,480,400C440,400,400,400,360,400C320,400,280,400,240,400C200,400,160,400,120,400C80,400,40,400,20,400L0,400Z"/></svg>